<svg width="24" height="24" viewBox="0 0 24 24" fill="none" xmlns="http://www.w3.org/2000/svg">
<g clip-path="url(#clip0_244_234)">
<path d="M9.363 5.36506C10.2204 5.11978 11.1082 4.9969 12 5.00006C16 5.00006 19.333 7.33306 22 12.0001C21.222 13.3611 20.388 14.5241 19.497 15.4881M17.357 17.3491C15.726 18.4491 13.942 19.0001 12 19.0001C8 19.0001 4.667 16.6671 2 12.0001C3.369 9.60506 4.913 7.82506 6.632 6.65906" stroke="#F9A424" stroke-width="1.18" stroke-linecap="round" stroke-linejoin="round"/>
<path d="M14 11.55C14 12.6546 13.1046 13.55 12 13.55C10.8954 13.55 10 12.6546 10 11.55C10 10.4454 10.8954 9.55001 12 9.55001C13.1046 9.55001 14 10.4454 14 11.55Z" stroke="#F9A424"/>
</g>
<defs>
<clipPath id="clip0_244_234">
<rect width="24" height="24" fill="white"/>
</clipPath>
</defs>
</svg>
