<svg width="20" height="15" viewBox="0 0 20 15" fill="none" xmlns="http://www.w3.org/2000/svg">
<path d="M1.14282 0.5H18.0037C18.3043 0.5 18.5774 0.625101 18.7751 0.825988C18.9731 1.02719 19.096 1.30528 19.096 1.61047V13.3894C19.096 13.6196 19.0261 13.834 18.9067 14.0119C18.8849 14.0694 18.8508 14.123 18.8041 14.1685C18.773 14.1983 18.7387 14.2227 18.7024 14.2411C18.5126 14.402 18.2686 14.5 18.0037 14.5H1.14282C0.842592 14.5 0.569182 14.3751 0.371099 14.1739C0.173481 13.9728 0.050415 13.6952 0.050415 13.3894V1.61047C0.050415 1.30465 0.173171 1.02687 0.370944 0.825988C0.568717 0.624786 0.841972 0.5 1.14282 0.5ZM0.888315 12.9222L6.79732 6.90033L0.888315 2.00279V12.9222ZM7.44815 7.43965L1.35609 13.6481H17.7392L11.9173 7.4406L9.99796 9.103C9.84746 9.23377 9.6221 9.24118 9.46276 9.10977L7.44815 7.43965ZM12.5544 6.88883L18.2581 12.9703V1.94922L12.5544 6.88883ZM1.42475 1.35176L9.72021 8.22745L17.6595 1.35176H1.42475Z" fill="black"/>
</svg>
