<svg width="36" height="36" viewBox="0 0 36 36" fill="none" xmlns="http://www.w3.org/2000/svg">
<path fill-rule="evenodd" clip-rule="evenodd" d="M36 18C36 27.9411 27.9411 36 18 36C8.05887 36 0 27.9411 0 18C0 8.05887 8.05887 0 18 0C27.9411 0 36 8.05887 36 18ZM27.7821 12.5784C25.7519 13.7112 24.836 15.3888 25.0344 17.6112C25.2327 19.836 26.3886 21.3384 28.4996 22.1184C28.0221 23.0952 27.4833 24.0504 26.8858 24.9888C25.3331 27.3288 23.9201 28.5 22.6442 28.5C22.1666 28.5 21.5299 28.3248 20.734 27.972C19.9381 27.6216 19.1618 27.4464 18.405 27.4464C17.6483 27.4464 16.8818 27.6216 16.1055 27.972C15.3292 28.3248 14.7022 28.5 14.2222 28.5C12.868 28.5 11.4549 27.408 9.98064 25.2216C8.58963 23.1144 7.78148 20.8992 7.56352 18.5784C7.34311 16.2576 7.69332 14.4504 8.60922 13.164C9.92186 11.136 11.6337 10.1184 13.7447 10.1184C14.4206 10.1184 15.2483 10.2936 16.223 10.644C17.1977 10.9944 17.925 11.172 18.4026 11.172C18.8801 11.172 19.5781 10.9968 20.494 10.644C21.4099 10.296 22.267 10.1184 23.063 10.1184C24.8556 10.1184 26.4278 10.9392 27.7821 12.5784ZM17.6263 10.2936C19.1005 10.3728 20.3544 9.7488 21.3903 8.4216C22.387 7.1352 22.7838 5.8272 22.5854 4.5C21.1528 4.6176 19.9185 5.2824 18.8826 6.4896C17.8467 7.74 17.4279 9.0072 17.6263 10.2936Z" fill="#212526"/>
</svg>
