<svg width="36" height="36" viewBox="0 0 36 36" fill="none" xmlns="http://www.w3.org/2000/svg">
<path d="M35.7879 15.2261L35.6027 14.4554H18.5291V21.5446H28.7304C27.6713 26.4785 22.7566 29.0756 18.7421 29.0756C15.8212 29.0756 12.7421 27.8703 10.7042 25.9329C9.62894 24.8943 8.77307 23.658 8.18555 22.2945C7.59803 20.9311 7.2904 19.4674 7.28027 17.9871C7.28027 15.0011 8.64819 12.0142 10.6386 10.0495C12.6291 8.08473 15.6352 6.98545 18.6242 6.98545C22.0472 6.98545 24.5005 8.76857 25.4179 9.58179L30.5529 4.57071C29.0466 3.27214 24.9084 0 18.4587 0C13.4826 0 8.71126 1.86991 5.22348 5.28027C1.78157 8.63839 0 13.4944 0 18C0 22.5056 1.68573 27.1189 5.02116 30.5036C8.58512 34.1132 13.6325 36 18.8298 36C23.5585 36 28.0407 34.1823 31.2352 30.8845C34.3757 27.638 36 23.1461 36 18.4371C36 16.4547 35.7969 15.2775 35.7879 15.2261Z" fill="#212526"/>
</svg>
