<svg width="36" height="36" viewBox="0 0 36 36" fill="none" xmlns="http://www.w3.org/2000/svg">
<path d="M18 0C8.05645 0 0 8.05645 0 18C0 27.9435 8.05645 36 18 36C27.9435 36 36 27.9435 36 18C36 8.05645 27.9435 0 18 0ZM26.8403 12.3315L23.8863 26.2524C23.6685 27.2395 23.0806 27.479 22.2605 27.0145L17.7605 23.6976L15.5903 25.7879C15.3508 26.0274 15.1476 26.2306 14.6831 26.2306L15.0024 21.6508L23.3419 14.1169C23.7048 13.7976 23.2621 13.6161 22.7831 13.9355L12.4766 20.4242L8.03468 19.0379C7.06935 18.7331 7.04758 18.0726 8.2379 17.6081L25.5919 10.9161C26.3976 10.6258 27.1016 11.1121 26.8403 12.3315Z" fill="#212526"/>
</svg>
